# This file uses centimeters as units for non-parametric coordinates.

v 0.018433 0.000000 -0.039568
v -0.028082 0.000000 -0.024454
v -0.028082 0.000000 0.024454
v 0.018433 0.000000 0.039568
v 0.047181 0.000000 0.000000
v 0.018433 0.200000 -0.039568
v -0.028082 0.200000 -0.024454
v -0.028082 0.200000 0.024454
v 0.018433 0.200000 0.039568
v 0.047181 0.200000 0.000000
v 0.182393 0.157573 -0.135738
v -0.072732 0.157573 -0.215411
v -0.227344 0.157573 0.002606
v -0.067774 0.157573 0.217022
v 0.185457 0.157573 0.131521
v 0.000000 0.612290 0.000000
v 0.033864 0.348788 -0.187782
v -0.168127 0.348788 -0.090235
v -0.137773 0.348788 0.132014
v 0.082979 0.348788 0.171824
v 0.189056 0.348788 -0.025821
v 0.000000 0.730411 0.000000
vt 0.628778 0.456374
vt 0.696655 0.456374
vt 0.628778 0.966728
vt 0.696655 0.966728
vt 0.764532 0.456374
vt 0.764532 0.966728
vt 0.832409 0.456374
vt 0.832409 0.966728
vt 0.900286 0.456374
vt 0.900286 0.966728
vt 0.968163 0.456374
vt 0.968163 0.966728
vt 0.577254 0.012236
vt 0.750000 0.250000
vt 0.297746 0.103054
vt 0.577254 0.487764
vt 0.297746 0.396946
vt 0.044297 0.486555
vt 0.144297 0.486555
vt 0.294297 0.986555
vt 0.244297 0.486555
vt 0.344297 0.486555
vt 0.444297 0.486555
vt 0.544297 0.486555
vt 0.577254 0.012236
vt 0.750000 0.250000
vt 0.297746 0.103054
vt 0.577254 0.487764
vt 0.297746 0.396946
vt 0.044297 0.486555
vt 0.144297 0.486555
vt 0.294297 0.986555
vt 0.244297 0.486555
vt 0.344297 0.486555
vt 0.444297 0.486555
vt 0.544297 0.486555
vn -0.309018 0.000000 -0.951056
vn -0.309018 0.000000 -0.951056
vn -0.309018 0.000000 -0.951056
vn -0.309018 0.000000 -0.951056
vn -0.309018 0.000000 -0.951056
vn -0.309018 0.000000 -0.951056
vn -1.000000 0.000000 0.000000
vn -1.000000 0.000000 0.000000
vn -1.000000 0.000000 0.000000
vn -1.000000 0.000000 0.000000
vn -1.000000 0.000000 0.000000
vn -1.000000 0.000000 0.000000
vn -0.309018 0.000000 0.951056
vn -0.309018 0.000000 0.951056
vn -0.309018 0.000000 0.951056
vn -0.309018 0.000000 0.951056
vn -0.309018 0.000000 0.951056
vn -0.309018 0.000000 0.951056
vn 0.809017 0.000000 0.587785
vn 0.809017 0.000000 0.587785
vn 0.809017 0.000000 0.587785
vn 0.809017 0.000000 0.587785
vn 0.809017 0.000000 0.587785
vn 0.809017 0.000000 0.587785
vn 0.809017 0.000000 -0.587785
vn 0.809017 0.000000 -0.587785
vn 0.809017 0.000000 -0.587785
vn 0.809017 0.000000 -0.587785
vn 0.809017 0.000000 -0.587785
vn 0.809017 0.000000 -0.587785
vn 0.000000 -1.000000 0.000000
vn 0.000000 -1.000000 0.000000
vn 0.000000 -1.000000 0.000000
vn 0.000000 -1.000000 0.000000
vn 0.000000 -1.000000 0.000000
vn 0.000000 -1.000000 0.000000
vn 0.000000 -1.000000 0.000000
vn 0.000000 -1.000000 0.000000
vn 0.000000 -1.000000 0.000000
vn 0.276343 0.374991 -0.884882
vn 0.276343 0.374991 -0.884882
vn 0.276343 0.374991 -0.884882
vn -0.756178 0.374991 -0.536261
vn -0.756178 0.374991 -0.536261
vn -0.756178 0.374991 -0.536261
vn -0.743687 0.374991 0.553455
vn -0.743687 0.374991 0.553455
vn -0.743687 0.374991 0.553455
vn 0.296555 0.374991 0.878315
vn 0.296555 0.374991 0.878315
vn 0.296555 0.374991 0.878315
vn 0.926968 0.374991 -0.010626
vn 0.926968 0.374991 -0.010626
vn 0.926968 0.374991 -0.010626
vn 0.000000 -1.000000 0.000000
vn 0.000000 -1.000000 0.000000
vn 0.000000 -1.000000 0.000000
vn 0.000000 -1.000000 0.000000
vn 0.000000 -1.000000 0.000000
vn 0.000000 -1.000000 0.000000
vn 0.000000 -1.000000 0.000000
vn 0.000000 -1.000000 0.000000
vn 0.000000 -1.000000 0.000000
vn -0.403141 0.374991 -0.834781
vn -0.403141 0.374991 -0.834781
vn -0.403141 0.374991 -0.834781
vn -0.918501 0.374991 0.125448
vn -0.918501 0.374991 0.125448
vn -0.918501 0.374991 0.125448
vn -0.164524 0.374991 0.912312
vn -0.164524 0.374991 0.912312
vn -0.164524 0.374991 0.912312
vn 0.816820 0.374991 0.438392
vn 0.816820 0.374991 0.438392
vn 0.816820 0.374991 0.438392
vn 0.669346 0.374991 -0.641371
vn 0.669346 0.374991 -0.641371
vn 0.669346 0.374991 -0.641371
s off
f 1/1/1 2/2/2 6/3/3
f 6/3/4 2/2/5 7/4/6
f 2/2/7 3/5/8 7/4/9
f 7/4/10 3/5/11 8/6/12
f 3/5/13 4/7/14 8/6/15
f 8/6/16 4/7/17 9/8/18
f 4/7/19 5/9/20 9/8/21
f 9/8/22 5/9/23 10/10/24
f 5/9/25 1/11/26 10/10/27
f 10/10/28 1/11/29 6/12/30
f 11/13/31 15/14/32 12/15/33
f 15/14/34 14/16/35 12/15/36
f 14/16/37 13/17/38 12/15/39
f 11/18/40 12/19/41 16/20/42
f 12/19/43 13/21/44 16/20/45
f 13/21/46 14/22/47 16/20/48
f 14/22/49 15/23/50 16/20/51
f 15/23/52 11/24/53 16/20/54
f 17/25/55 21/26/56 18/27/57
f 21/26/58 20/28/59 18/27/60
f 20/28/61 19/29/62 18/27/63
f 17/30/64 18/31/65 22/32/66
f 18/31/67 19/33/68 22/32/69
f 19/33/70 20/34/71 22/32/72
f 20/34/73 21/35/74 22/32/75
f 21/35/76 17/36/77 22/32/78
