# This file uses centimeters as units for non-parametric coordinates.

v 0.001588 0.000000 0.165534
v 0.156191 0.000000 0.165534
v 0.001588 0.482122 0.165534
v 0.156191 0.482122 0.165534
v 0.001588 0.482122 0.010675
v 0.156191 0.482122 0.010675
v 0.001588 0.000000 0.010675
v 0.156191 0.000000 0.010675
v 0.156191 0.309856 0.165534
v 0.001588 0.309856 0.165534
v 0.001588 0.309856 0.010675
v 0.156191 0.309856 0.010675
vt 0.375000 0.000000
vt 0.625000 0.000000
vt 0.625000 0.160673
vt 0.375000 0.160673
vt 0.375000 0.250000
vt 0.625000 0.250000
vt 0.625000 0.500000
vt 0.375000 0.500000
vt 0.375000 0.589327
vt 0.625000 0.589327
vt 0.625000 0.750000
vt 0.375000 0.750000
vt 0.625000 1.000000
vt 0.375000 1.000000
vt 0.875000 0.000000
vt 0.875000 0.160673
vt 0.125000 0.000000
vt 0.125000 0.160673
vt 0.125000 0.250000
vt 0.875000 0.250000
vn 0.000000 0.000000 1.000000
vn 0.000000 0.000000 1.000000
vn 0.000000 0.000000 1.000000
vn 0.000000 0.000000 1.000000
vn 0.000000 1.000000 0.000000
vn 0.000000 1.000000 0.000000
vn 0.000000 1.000000 0.000000
vn 0.000000 1.000000 0.000000
vn 0.000000 0.000000 -1.000000
vn 0.000000 0.000000 -1.000000
vn 0.000000 0.000000 -1.000000
vn 0.000000 0.000000 -1.000000
vn 0.000000 -1.000000 0.000000
vn 0.000000 -1.000000 0.000000
vn 0.000000 -1.000000 0.000000
vn 0.000000 -1.000000 0.000000
vn 1.000000 0.000000 0.000000
vn 1.000000 0.000000 0.000000
vn 1.000000 0.000000 0.000000
vn 1.000000 0.000000 0.000000
vn -1.000000 0.000000 0.000000
vn -1.000000 0.000000 0.000000
vn -1.000000 0.000000 0.000000
vn -1.000000 0.000000 0.000000
vn 0.000000 0.000000 1.000000
vn 0.000000 0.000000 1.000000
vn 0.000000 0.000000 1.000000
vn 0.000000 0.000000 1.000000
vn -1.000000 0.000000 0.000000
vn -1.000000 0.000000 0.000000
vn -1.000000 0.000000 0.000000
vn -1.000000 0.000000 0.000000
vn 0.000000 0.000000 -1.000000
vn 0.000000 0.000000 -1.000000
vn 0.000000 0.000000 -1.000000
vn 0.000000 0.000000 -1.000000
vn 1.000000 0.000000 0.000000
vn 1.000000 0.000000 0.000000
vn 1.000000 0.000000 0.000000
vn 1.000000 0.000000 0.000000
s 1
f 1/1/1 2/2/2 10/4/3
f 10/4/3 2/2/2 9/3/4
s 2
f 3/5/5 4/6/6 5/8/7
f 5/8/7 4/6/6 6/7/8
s 3
f 11/9/9 12/10/10 7/12/11
f 7/12/11 12/10/10 8/11/12
s 4
f 7/12/13 8/11/14 1/14/15
f 1/14/15 8/11/14 2/13/16
s 5
f 2/2/17 8/15/18 9/3/19
f 9/3/19 8/15/18 12/16/20
s 6
f 7/17/21 1/1/22 11/18/23
f 11/18/23 1/1/22 10/4/24
s 7
f 10/4/25 9/3/26 3/5/27
f 3/5/27 9/3/26 4/6/28
s 8
f 11/18/29 10/4/30 5/19/31
f 5/19/31 10/4/30 3/5/32
s 9
f 5/8/33 6/7/34 11/9/35
f 11/9/35 6/7/34 12/10/36
s 10
f 9/3/37 12/16/38 4/6/39
f 4/6/39 12/16/38 6/20/40
