# This file uses centimeters as units for non-parametric coordinates.

g default
v 0.119330 -0.364999 -0.588159
v 0.119330 -0.364999 -0.212514
v 0.494977 -0.364999 -0.212513
v 0.494977 -0.364999 -0.588159
v 0.307153 0.968117 -0.400336
v -0.287053 -0.349994 -0.384690
v -0.287053 -0.349994 0.200494
v 0.298130 -0.349994 0.200494
v 0.298130 -0.349994 -0.384690
v 0.005539 2.271378 -0.092099
v -0.498808 -0.342673 -0.234290
v -0.498808 -0.342673 0.401019
v 0.136501 -0.342673 0.401019
v 0.136501 -0.342673 -0.234290
v -0.317595 1.049756 0.221784
v 0.040047 -0.351650 0.009144
v -0.506431 -0.351650 0.047849
v -0.467726 -0.351650 -0.498629
v 0.078752 -0.351650 -0.537334
v -0.293340 0.577289 -0.351837
v -0.136903 -0.351650 -0.224485
v -0.136903 -0.351650 0.360698
v 0.448282 -0.351650 0.360698
v 0.448282 -0.351650 -0.224485
v 0.277006 0.767511 0.161830
vt 0.500000 0.000000
vt 0.750000 0.250000
vt 0.500000 0.500000
vt 0.250000 0.250000
vt 0.250000 0.500000
vt 0.375000 0.500000
vt 0.500000 1.000000
vt 0.500000 0.500000
vt 0.625000 0.500000
vt 0.750000 0.500000
vt 0.500000 0.000000
vt 0.750000 0.250000
vt 0.500000 0.500000
vt 0.250000 0.250000
vt 0.250000 0.500000
vt 0.375000 0.500000
vt 0.500000 1.000000
vt 0.500000 0.500000
vt 0.625000 0.500000
vt 0.750000 0.500000
vt 0.500000 0.000000
vt 0.750000 0.250000
vt 0.500000 0.500000
vt 0.250000 0.250000
vt 0.250000 0.500000
vt 0.375000 0.500000
vt 0.500000 1.000000
vt 0.500000 0.500000
vt 0.625000 0.500000
vt 0.750000 0.500000
vt 0.500000 0.000000
vt 0.250000 0.250000
vt 0.500000 0.500000
vt 0.750000 0.250000
vt 0.250000 0.500000
vt 0.500000 1.000000
vt 0.375000 0.500000
vt 0.500000 0.500000
vt 0.625000 0.500000
vt 0.750000 0.500000
vt 0.500000 0.000000
vt 0.750000 0.250000
vt 0.500000 0.500000
vt 0.250000 0.250000
vt 0.250000 0.500000
vt 0.375000 0.500000
vt 0.500000 1.000000
vt 0.500000 0.500000
vt 0.625000 0.500000
vt 0.750000 0.500000
vn 0.000000 -1.000000 0.000000
vn 0.000000 -1.000000 0.000000
vn 0.000000 -1.000000 0.000000
vn 0.000000 -1.000000 0.000000
vn -0.990220 0.139513 -0.000000
vn -0.990220 0.139513 -0.000000
vn -0.990220 0.139513 -0.000000
vn 0.000000 0.139513 0.990220
vn 0.000000 0.139513 0.990220
vn 0.000000 0.139513 0.990220
vn 0.990220 0.139513 0.000000
vn 0.990220 0.139513 0.000000
vn 0.990220 0.139513 0.000000
vn 0.000000 0.139513 -0.990220
vn 0.000000 0.139513 -0.990220
vn 0.000000 0.139513 -0.990220
vn 0.000000 -1.000000 0.000000
vn 0.000000 -1.000000 0.000000
vn 0.000000 -1.000000 0.000000
vn 0.000000 -1.000000 0.000000
vn -0.993828 0.110929 -0.000000
vn -0.993828 0.110929 -0.000000
vn -0.993828 0.110929 -0.000000
vn 0.000000 0.110929 0.993828
vn 0.000000 0.110929 0.993828
vn 0.000000 0.110929 0.993828
vn 0.993828 0.110929 0.000000
vn 0.993828 0.110929 0.000000
vn 0.993828 0.110929 0.000000
vn 0.000000 0.110929 -0.993828
vn 0.000000 0.110929 -0.993828
vn 0.000000 0.110929 -0.993828
vn 0.000000 -1.000000 0.000000
vn 0.000000 -1.000000 0.000000
vn 0.000000 -1.000000 0.000000
vn 0.000000 -1.000000 0.000000
vn -0.991638 0.129054 -0.000000
vn -0.991638 0.129054 -0.000000
vn -0.991638 0.129054 -0.000000
vn 0.000000 0.127668 0.991817
vn 0.000000 0.127668 0.991817
vn 0.000000 0.127668 0.991817
vn 0.950721 0.310047 0.000000
vn 0.950721 0.310047 0.000000
vn 0.950721 0.310047 0.000000
vn 0.000000 0.311267 -0.950323
vn 0.000000 0.311267 -0.950323
vn 0.000000 0.311267 -0.950323
vn 0.000000 -1.000000 0.000000
vn 0.000000 -1.000000 0.000000
vn 0.000000 -1.000000 0.000000
vn 0.000000 -1.000000 0.000000
vn 0.065301 0.381709 0.921973
vn 0.065301 0.381709 0.921973
vn 0.065301 0.381709 0.921973
vn -0.978426 0.194627 -0.069298
vn -0.978426 0.194627 -0.069298
vn -0.978426 0.194627 -0.069298
vn -0.069640 0.168448 -0.983247
vn -0.069640 0.168448 -0.983247
vn -0.069640 0.168448 -0.983247
vn 0.930754 0.359655 0.065922
vn 0.930754 0.359655 0.065922
vn 0.930754 0.359655 0.065922
vn 0.000000 -1.000000 0.000000
vn 0.000000 -1.000000 0.000000
vn 0.000000 -1.000000 0.000000
vn 0.000000 -1.000000 0.000000
vn -0.937911 0.346876 -0.000000
vn -0.937911 0.346876 -0.000000
vn -0.937911 0.346876 -0.000000
vn 0.000000 0.174953 0.984577
vn 0.000000 0.174953 0.984577
vn 0.000000 0.174953 0.984577
vn 0.988491 0.151278 0.000000
vn 0.988491 0.151278 0.000000
vn 0.988491 0.151278 0.000000
vn 0.000000 0.326291 -0.945269
vn 0.000000 0.326291 -0.945269
vn 0.000000 0.326291 -0.945269
s off
g mountain:pCone7
f 1/1/1 4/2/2 3/3/3 2/4/4
f 1/5/5 2/6/6 5/7/7
f 2/6/8 3/8/9 5/7/10
f 3/8/11 4/9/12 5/7/13
f 4/9/14 1/10/15 5/7/16
f 6/11/17 9/12/18 8/13/19 7/14/20
f 6/15/21 7/16/22 10/17/23
f 7/16/24 8/18/25 10/17/26
f 8/18/27 9/19/28 10/17/29
f 9/19/30 6/20/31 10/17/32
f 11/21/33 14/22/34 13/23/35 12/24/36
f 11/25/37 12/26/38 15/27/39
f 12/26/40 13/28/41 15/27/42
f 13/28/43 14/29/44 15/27/45
f 14/29/46 11/30/47 15/27/48
f 16/31/49 17/32/50 18/33/51 19/34/52
f 16/35/53 20/36/54 17/37/55
f 17/37/56 20/36/57 18/38/58
f 18/38/59 20/36/60 19/39/61
f 19/39/62 20/36/63 16/40/64
f 21/41/65 24/42/66 23/43/67 22/44/68
f 21/45/69 22/46/70 25/47/71
f 22/46/72 23/48/73 25/47/74
f 23/48/75 24/49/76 25/47/77
f 24/49/78 21/50/79 25/47/80
