# This file uses centimeters as units for non-parametric coordinates.

mtllib mountain.mtl
g default
v 0.442225 -0.007358 -0.695863
v 0.442225 -0.007358 -0.427638
v 0.710451 -0.007358 -0.427637
v 0.710451 -0.007358 -0.695863
v 0.576338 0.646368 -0.561750
v 0.152052 0.000000 -0.550578
v 0.152052 0.000000 -0.132735
v 0.569895 0.000000 -0.132735
v 0.569895 0.000000 -0.550578
v 0.360974 1.285454 -0.341657
v 0.000851 0.003590 -0.443187
v 0.000851 0.003590 0.010448
v 0.454486 0.003590 0.010448
v 0.454486 0.003590 -0.443187
v 0.130244 0.686402 -0.117533
v 0.385614 -0.000812 -0.269366
v -0.004592 -0.000812 -0.241729
v 0.023045 -0.000812 -0.631935
v 0.413251 -0.000812 -0.659572
v 0.147563 0.454716 -0.527120
v 0.259265 -0.000812 -0.436186
v 0.259265 -0.000812 -0.018343
v 0.677109 -0.000812 -0.018343
v 0.677109 -0.000812 -0.436186
v 0.554812 0.547996 -0.160342
vt 0.500000 0.000000
vt 0.250000 0.250000
vt 0.500000 0.500000
vt 0.750000 0.250000
vt 0.250000 0.500000
vt 0.375000 0.500000
vt 0.500000 0.500000
vt 0.625000 0.500000
vt 0.750000 0.500000
vt 0.500000 1.000000
vt 0.500000 0.000000
vt 0.750000 0.250000
vt 0.500000 0.500000
vt 0.250000 0.250000
vt 0.250000 0.500000
vt 0.375000 0.500000
vt 0.500000 1.000000
vt 0.500000 0.500000
vt 0.625000 0.500000
vt 0.750000 0.500000
vt 0.500000 0.000000
vt 0.750000 0.250000
vt 0.500000 0.500000
vt 0.250000 0.250000
vt 0.250000 0.500000
vt 0.375000 0.500000
vt 0.500000 1.000000
vt 0.500000 0.500000
vt 0.625000 0.500000
vt 0.750000 0.500000
vt 0.500000 0.000000
vt 0.750000 0.250000
vt 0.500000 0.500000
vt 0.250000 0.250000
vt 0.250000 0.500000
vt 0.375000 0.500000
vt 0.500000 1.000000
vt 0.500000 0.500000
vt 0.625000 0.500000
vt 0.750000 0.500000
vt 0.500000 0.000000
vt 0.750000 0.250000
vt 0.500000 0.500000
vt 0.250000 0.250000
vt 0.250000 0.500000
vt 0.375000 0.500000
vt 0.500000 1.000000
vt 0.500000 0.500000
vt 0.625000 0.500000
vt 0.750000 0.500000
vn 0.000000 -1.000000 -0.000000
vn 0.000000 -1.000000 -0.000000
vn 0.000000 -1.000000 -0.000000
vn 0.000000 -1.000000 -0.000000
vn -0.979598 0.200966 -0.000000
vn -0.979598 0.200966 -0.000000
vn -0.979598 0.200966 -0.000000
vn 0.000000 0.200966 0.979598
vn 0.000000 0.200966 0.979598
vn 0.000000 0.200966 0.979598
vn 0.979598 0.200966 0.000000
vn 0.979598 0.200966 0.000000
vn 0.979598 0.200966 0.000000
vn 0.000000 0.200966 -0.979598
vn 0.000000 0.200966 -0.979598
vn 0.000000 0.200966 -0.979598
vn 0.000000 -1.000000 0.000000
vn 0.000000 -1.000000 0.000000
vn 0.000000 -1.000000 0.000000
vn 0.000000 -1.000000 0.000000
vn -0.987049 0.160423 -0.000000
vn -0.987049 0.160423 -0.000000
vn -0.987049 0.160423 -0.000000
vn -0.000000 0.160423 0.987048
vn -0.000000 0.160423 0.987048
vn -0.000000 0.160423 0.987048
vn 0.987049 0.160423 0.000000
vn 0.987048 0.160423 0.000000
vn 0.987048 0.160423 0.000000
vn 0.000000 0.160423 -0.987048
vn 0.000000 0.160423 -0.987048
vn 0.000000 0.160423 -0.987048
vn 0.000000 -1.000000 0.000000
vn 0.000000 -1.000000 0.000000
vn 0.000000 -1.000000 0.000000
vn 0.000000 -1.000000 0.000000
vn -0.982514 0.186187 -0.000000
vn -0.982514 0.186187 -0.000000
vn -0.982514 0.186187 -0.000000
vn -0.000000 0.184224 0.982884
vn -0.000000 0.184224 0.982884
vn -0.000000 0.184224 0.982884
vn 0.903326 0.428955 0.000000
vn 0.903326 0.428955 0.000000
vn 0.903326 0.428955 0.000000
vn 0.000000 0.430478 -0.902601
vn 0.000000 0.430478 -0.902601
vn 0.000000 0.430478 -0.902601
vn 0.000000 -1.000000 0.000000
vn 0.000000 -1.000000 0.000000
vn 0.000000 -1.000000 0.000000
vn 0.000000 -1.000000 0.000000
vn 0.060546 0.515341 0.854844
vn 0.060546 0.515341 0.854844
vn 0.060546 0.515341 0.854844
vn -0.958305 0.277570 -0.067873
vn -0.958305 0.277570 -0.067873
vn -0.958305 0.277570 -0.067873
vn -0.068559 0.241471 -0.967983
vn -0.068559 0.241471 -0.967983
vn -0.068559 0.241471 -0.967983
vn 0.869861 0.489435 0.061609
vn 0.869861 0.489435 0.061609
vn 0.869861 0.489435 0.061609
vn 0.000000 -1.000000 -0.000000
vn 0.000000 -1.000000 -0.000000
vn 0.000000 -1.000000 -0.000000
vn 0.000000 -1.000000 -0.000000
vn -0.880448 0.474143 -0.000000
vn -0.880448 0.474143 -0.000000
vn -0.880448 0.474143 -0.000000
vn -0.000000 0.250492 0.968119
vn -0.000000 0.250492 0.968119
vn -0.000000 0.250492 0.968119
vn 0.976059 0.217506 0.000000
vn 0.976059 0.217506 0.000000
vn 0.976059 0.217506 0.000000
vn 0.000000 0.449088 -0.893488
vn 0.000000 0.449088 -0.893488
vn 0.000000 0.449088 -0.893488
s off
g pCone7
usemtl initialShadingGroup
f 1/1/1 4/4/2 3/3/3 2/2/4
f 1/5/5 2/6/6 5/10/7
f 2/6/8 3/7/9 5/10/10
f 3/7/11 4/8/12 5/10/13
f 4/8/14 1/9/15 5/10/16
f 6/11/17 9/12/18 8/13/19 7/14/20
f 6/15/21 7/16/22 10/17/23
f 7/16/24 8/18/25 10/17/26
f 8/18/27 9/19/28 10/17/29
f 9/19/30 6/20/31 10/17/32
f 11/21/33 14/22/34 13/23/35 12/24/36
f 11/25/37 12/26/38 15/27/39
f 12/26/40 13/28/41 15/27/42
f 13/28/43 14/29/44 15/27/45
f 14/29/46 11/30/47 15/27/48
f 16/31/49 17/34/50 18/33/51 19/32/52
f 16/35/53 20/37/54 17/36/55
f 17/36/56 20/37/57 18/38/58
f 18/38/59 20/37/60 19/39/61
f 19/39/62 20/37/63 16/40/64
f 21/41/65 24/42/66 23/43/67 22/44/68
f 21/45/69 22/46/70 25/47/71
f 22/46/72 23/48/73 25/47/74
f 23/48/75 24/49/76 25/47/77
f 24/49/78 21/50/79 25/47/80
